<?xml version="1.0" encoding="utf-8"?>
<!-- Generator: Adobe Illustrator 20.0.0, SVG Export Plug-In . SVG Version: 6.00 Build 0)  -->
<svg version="1.1" id="Layer_1" xmlns="http://www.w3.org/2000/svg" xmlns:xlink="http://www.w3.org/1999/xlink" x="0px" y="0px"
	 viewBox="0 0 156.2 163.5" style="enable-background:new 0 0 156.2 163.5;" xml:space="preserve">
<style type="text/css">
	.walgreens-st0{fill:url(#SVGID_1_);}
	.walgreens-st1{fill:#E31837;}
	.walgreens-st2{fill:#FFFFFF;}
	.walgreens-st3{fill:#939598;}
</style>
<g>
	<linearGradient id="SVGID_1_" gradientUnits="userSpaceOnUse" x1="25.729" y1="151.9949" x2="25.729" y2="87.1891">
		<stop  offset="0" style="stop-color:#A41E22"/>
		<stop  offset="0.2281" style="stop-color:#9C1C1F"/>
		<stop  offset="0.6491" style="stop-color:#861316"/>
		<stop  offset="1" style="stop-color:#72090A"/>
	</linearGradient>
	<polygon class="walgreens-st0" points="51.5,163.5 0,110.4 0,13.3 51.5,54.1 	"/>
	<path class="walgreens-st1" d="M131.5,0H0v110.5h131.5c4,0,7.3-3.3,7.3-7.3V7.3C138.9,3.3,135.6,0,131.5,0z"/>
</g>
<path class="walgreens-st2" d="M63.7,90.1c23,4.2,39.8-18,50.5-37.3c4.3-7.7,10.9-27.9,3.5-35.6c-6.7-7.4-11.9,2.3-15.9,5.5l3.1,3.6
	c6.1,7.7,0.8,22.5-2.8,30.3c-5.5,9.7-15.8,24.3-27.8,22.3c-2.6-0.6-4.8-3.2-5.7-5.8c6.5-6.4,14.2-17.7,18.5-25.2
	c3.6-6.1,9.9-17.9,4.1-22.7c-4.8-3.3-14.4,1.5-19.6,5.8c-3.1,2.8-5.3,5.1-7.7,8.4c-6.6,9-12.9,24.4-12.3,36.2
	c-3.2,2.3-6.8,4.6-11.1,3.3c-4.3-1-5.1-4.6-5.7-7.5c-2.7-17.2,14.5-38.9,24.2-51.3c0,0-7.6,2.1-13.2,2.3
	c-12.8,0.5-22.3-5.4-29.2,3.1c-2.1,3-3.3,6.2-3.7,10c2.8-2.4,7-1.8,11.1-1.6c6.9,0.6,10.4,1.4,16.6-0.2c-5.6,7.8-14.9,23.4-16.6,33
	c-0.9,6.4-0.8,16.5,4.7,21.1c9.1,6,18.1,1.8,26.2-3.8C57.3,87,60.3,89.5,63.7,90.1z M79.1,36.4c2.4-1.2,1.7,2.4,1.7,2.4
	c-0.3,4.1-3.3,8.9-5.4,12.7c-2.2,3.8-9.7,12.8-13.1,14.7c0.1-5.4,6-17.3,8.9-21.8C72.8,41.7,76.7,37.6,79.1,36.4z"/>
<g>
	<path class="walgreens-st3" d="M145.8,104.5h-2v-0.7h5v0.7h-2.1v6h-0.9V104.5z"/>
	<path class="walgreens-st3" d="M155.2,107.5c0-0.9-0.1-2.1-0.1-2.9h0c-0.2,0.8-0.5,1.6-0.8,2.6l-1.2,3.3h-0.7l-1.1-3.2
		c-0.3-1-0.6-1.8-0.8-2.6h0c0,0.8-0.1,2-0.1,3l-0.2,2.9h-0.8l0.5-6.7h1.1l1.1,3.3c0.3,0.8,0.5,1.6,0.7,2.3h0
		c0.2-0.7,0.4-1.4,0.7-2.3l1.2-3.3h1.1l0.4,6.7h-0.9L155.2,107.5z"/>
</g>
</svg>
