<?xml version="1.0" encoding="utf-8"?>
<!-- Generator: Adobe Illustrator 20.0.0, SVG Export Plug-In . SVG Version: 6.00 Build 0)  -->
<svg version="1.1" id="Layer_1" xmlns="http://www.w3.org/2000/svg" xmlns:xlink="http://www.w3.org/1999/xlink" x="0px" y="0px"
	 viewBox="0 0 124.3 139.6" style="enable-background:new 0 0 124.3 139.6;" xml:space="preserve">
<style type="text/css">
	.walmart-st0{fill:#FDBB30;}
</style>
<g>
	<g>
		<g>
			<g>
				<g>
					<g>
						<path class="walmart-st0" d="M62.2,47c3.3,0,6-1.7,6.3-3.9l3.2-36.5C71.7,3,67.5,0,62.2,0c-5.3,0-9.5,3-9.5,6.6l3.2,36.5
							C56.2,45.3,58.9,47,62.2,47L62.2,47z"/>
						<path class="walmart-st0" d="M42.4,58.4c1.6-2.8,1.5-6-0.2-7.4l-30-21.1c-3.1-1.8-7.8,0.4-10.5,5c-2.7,4.6-2.2,9.7,0.9,11.5l33.2,15.5
							C38,62.7,40.8,61.2,42.4,58.4L42.4,58.4z"/>
						<path class="walmart-st0" d="M81.9,58.4c1.6,2.8,4.5,4.3,6.5,3.5l33.2-15.5c3.1-1.8,3.6-6.9,0.9-11.5c-2.7-4.6-7.4-6.8-10.5-5L82.1,51
							C80.4,52.4,80.3,55.6,81.9,58.4L81.9,58.4z"/>
					</g>
					<g>
						<path class="walmart-st0" d="M62.2,92.6c3.3,0,6,1.7,6.3,3.9l3.2,36.5c0,3.6-4.2,6.6-9.5,6.6c-5.3,0-9.5-3-9.5-6.6l3.2-36.5
							C56.2,94.3,58.9,92.6,62.2,92.6L62.2,92.6z"/>
						<path class="walmart-st0" d="M81.9,81.2c1.6-2.8,4.5-4.3,6.5-3.5l33.2,15.5c3.1,1.8,3.6,7,0.9,11.6c-2.7,4.6-7.4,6.8-10.5,5l-30-21
							C80.4,87.2,80.3,84,81.9,81.2L81.9,81.2z"/>
						<path class="walmart-st0" d="M42.4,81.2c1.6,2.8,1.5,6-0.2,7.4l-30,21c-3.1,1.8-7.8-0.4-10.5-5c-2.7-4.6-2.2-9.7,0.9-11.6l33.2-15.5
							C38,76.9,40.8,78.4,42.4,81.2L42.4,81.2z"/>
					</g>
				</g>
			</g>
		</g>
	</g>
</g>
</svg>
